<svg width="48" height="48" viewBox="0 0 48 48" fill="none" xmlns="http://www.w3.org/2000/svg">
    <path d="M24 2C11.87 2 2 11.87 2 24s9.87 22 22 22 22-9.87 22-22S36.13 2 24 2zm0 41.8C13.287 43.8 4.2 34.713 4.2 24 4.2 13.287 13.287 4.2 24 4.2c10.713 0 19.8 9.087 19.8 19.8 0 10.713-9.087 19.8-19.8 19.8z" fill="#3E3E3E"/>
    <path d="M32.276 19.337c-.7-.674-1.838-.674-2.548-.01l-8.381 7.909-3.067-2.937c-.7-.675-1.838-.675-2.548-.01a1.654 1.654 0 0 0-.01 2.424l4.336 4.153c.35.333.81.504 1.279.504.46 0 .919-.162 1.269-.494l9.66-9.115c.71-.665.71-1.749.01-2.424z" fill="#47CBC3"/>
</svg>
