<svg width="48" height="49" viewBox="0 0 48 49" fill="none" xmlns="http://www.w3.org/2000/svg">
    <path d="M31.488 31.434H15.906v1h15.582v-1zm-16.082-.5v-8.489h-1v8.49h1zm.5-8.989h15.582v-1H15.906v1zm16.082 6.95v2.04h1v-2.04h-1zm0-6.45v6.45h1v-6.45h-1zm-.5-.5a.5.5 0 0 1 .5.5h1a1.5 1.5 0 0 0-1.5-1.5v1zm-16.082.5a.5.5 0 0 1 .5-.5v-1a1.5 1.5 0 0 0-1.5 1.5h1zm.5 8.99a.5.5 0 0 1-.5-.5h-1a1.5 1.5 0 0 0 1.5 1.5v-1zm15.582 1a1.5 1.5 0 0 0 1.5-1.5h-1a.5.5 0 0 1-.5.5v1z" fill="#3E3E3E"/>
    <path d="M28.202 19.02a.5.5 0 1 0 1 0h-1zm-9.347 2.387v-2.388h-1v2.388h1zm0-2.388c0-.581.195-1.665.873-2.589.659-.897 1.8-1.686 3.8-1.686v-1c-2.31 0-3.755.935-4.606 2.095-.83 1.131-1.067 2.436-1.067 3.18h1zm4.674-4.275c2.015 0 3.154.735 3.804 1.593.67.883.869 1.96.869 2.682h1c0-.868-.233-2.18-1.072-3.286-.858-1.132-2.306-1.989-4.601-1.989v1z" fill="#3E3E3E"/>
    <circle cx="17.746" cy="25.78" r=".684" fill="#FF5A60"/>
    <circle cx="21.652" cy="25.78" r=".684" fill="#FF5A60"/>
    <circle cx="25.559" cy="25.78" r=".684" fill="#FF5A60"/>
    <circle cx="29.465" cy="25.78" r=".684" fill="#FF5A60"/>
    <path d="M11 37.686V44.5a1 1 0 0 0 1 1h23.395a1 1 0 0 0 1-1v-6.814m-25.395 0h25.395m-25.395 0V8.384m25.395 29.302V8.384m0 0V4.5a1 1 0 0 0-1-1H12a1 1 0 0 0-1 1v3.884m25.395 0H11" stroke="#3E3E3E"/>
    <circle cx="23.699" cy="41.593" r=".977" fill="#3E3E3E"/>
</svg>
